<?xml version="1.0" encoding="UTF-8"?> <!-- Creator: CorelDRAW X7 --> <svg xmlns="http://www.w3.org/2000/svg" xmlns:xlink="http://www.w3.org/1999/xlink" xml:space="preserve" width="100mm" height="48.5mm" style="shape-rendering:geometricPrecision; text-rendering:geometricPrecision; image-rendering:optimizeQuality; fill-rule:evenodd; clip-rule:evenodd" viewBox="0 0 10000 4850"> <defs> <style type="text/css"> <![CDATA[ .str1 {stroke:#7C7E80;stroke-width:70.56} .str0 {stroke:#FEFEFE;stroke-width:17.69} .fil5 {fill:none} .fil0 {fill:#FEFEFE} .fil2 {fill:#A9ABAE} .fil4 {fill:#7C7E80} .fil6 {fill:#373435} .fil3 {fill:#FFF0D9} .fil1 {fill:#C52F33} .fil7 {fill:#4B4B4D;fill-rule:nonzero} ]]> </style> </defs> <g id="Capa_x0020_1"> <metadata id="CorelCorpID_0Corel-Layer"></metadata> <path class="fil0" d="M9917 933c-80,-103 -202,-160 -344,-160l-8280 0c-260,0 -508,191 -577,444l-567 2102c-37,139 -14,274 66,378 80,104 202,161 344,161l8280 0c260,0 508,-191 577,-444 -7,24 -22,44 -41,58 30,-26 45,-76 65,-149l543 -2012c11,-43 17,-86 17,-128 0,-92 -28,-178 -83,-250z"></path> <path class="fil0" d="M2071 15c-48,0 -90,32 -103,78 0,0 -10,37 -10,39 -5,-9 -18,-36 -18,-36 -22,-43 -69,-66 -116,-56l-208 42c-47,9 -81,49 -84,97 0,0 -3,30 -3,40 -6,-8 -25,-32 -25,-32 -30,-37 -81,-50 -125,-31l-195 83c-39,17 -64,55 -64,97 0,5 0,10 1,15 0,0 4,30 5,39 -7,-6 -31,-25 -31,-25 -36,-31 -89,-33 -128,-6l-174 120c-29,21 -46,54 -46,88 0,11 2,23 6,35 0,0 10,28 13,38 -8,-5 -35,-19 -35,-19 -42,-23 -94,-15 -127,20l-146 153c-20,20 -30,46 -30,73 0,19 5,38 15,54 0,0 16,27 21,35 -9,-3 -39,-12 -39,-12 -45,-13 -95,5 -120,46l-112 179c-11,17 -17,37 -17,56 0,26 10,52 28,72 0,0 23,25 32,35 -13,-1 -47,-4 -47,-4 -48,-4 -92,24 -109,69l-73 198c-5,12 -7,25 -7,37 0,33 16,66 44,86 0,0 115,83 180,129 -34,147 -54,295 -54,440 0,251 48,495 139,728 -14,53 -87,324 -87,324 -10,36 -15,71 -15,106 0,77 23,149 68,207 64,83 167,131 284,131 0,0 227,0 287,0 367,326 836,506 1327,506 490,0 959,-180 1327,-506 76,0 5339,0 5339,0 224,0 446,-171 504,-389l567 -2102c10,-36 15,-72 15,-106 0,-77 -23,-149 -68,-207 -64,-83 -167,-131 -284,-131 0,0 -5371,0 -5656,0 -4,-18 -11,-34 -24,-48l-146 -154c-33,-34 -85,-43 -127,-20 0,0 -27,14 -35,19 3,-9 13,-38 13,-38 4,-12 6,-24 6,-35 0,-34 -16,-67 -45,-87l-174 -122c-39,-27 -91,-25 -128,6 0,0 -24,19 -31,25 1,-9 6,-39 6,-39 0,-5 1,-10 1,-15 0,-42 -25,-81 -65,-97l-194 -84c-44,-19 -95,-6 -125,31 0,0 -19,24 -25,31 -1,-9 -3,-40 -3,-40 -3,-48 -37,-87 -84,-97l-207 -43c-47,-10 -95,13 -116,56 0,0 -14,27 -19,35 -2,-9 -10,-38 -10,-38 -13,-46 -55,-78 -102,-78l-212 -1c0,0 0,0 0,0z"></path> <path class="fil1" d="M9241 3366c-46,172 -226,311 -402,311l-8280 0c-176,0 -281,-139 -235,-311l567 -2102c46,-171 226,-310 402,-310l8280 0c176,0 281,139 235,310l-567 2102z"></path> <path class="fil2" d="M1293 879c-211,0 -419,161 -474,366l-567 2102c-29,107 -12,208 48,286 58,76 150,119 259,119l8280 0c211,0 419,-161 474,-366l0 0 567 -2102c29,-107 12,-208 -48,-286 -58,-77 -150,-119 -259,-119l-8280 0zm-875 2663c-30,-40 -38,-96 -22,-156l567 -2102c38,-139 189,-255 330,-255l8280 0c61,0 111,21 141,60 30,40 38,95 22,156l-567 2102c-38,138 -189,255 -330,255l-8280 0c-61,0 -111,-21 -141,-60z"></path> <g id="_3017098427696"> <path class="fil2" d="M4920 1160l1764 0 -168 590 -57 0c2,-31 4,-59 4,-83 0,-112 -35,-199 -104,-261 -69,-61 -185,-97 -349,-105l-472 1651c-27,92 -41,160 -41,204 0,41 17,74 50,98 34,24 102,37 204,39l-15 57 -1080 0 19 -57c111,0 192,-21 242,-62 51,-42 97,-136 139,-282l472 -1648c-165,5 -303,42 -415,110 -111,67 -213,180 -305,339l-61 0 173 -590z"></path> <path class="fil2" d="M6937 2068c64,-72 123,-108 174,-108 26,0 48,9 64,26 17,17 26,41 26,71 0,70 -19,146 -56,227 -36,81 -80,148 -130,201 -50,53 -101,91 -154,115 -52,24 -126,43 -221,57 79,-262 178,-458 297,-589zm6 625c117,-32 223,-79 318,-141 95,-61 174,-143 236,-244 46,-74 68,-150 68,-228 0,-66 -23,-120 -69,-163 -46,-43 -114,-64 -205,-64 -178,0 -356,53 -532,159 -177,107 -317,248 -420,424 -102,176 -154,352 -154,529 0,112 35,212 104,298 68,86 193,129 372,129 142,0 272,-30 389,-90 117,-59 237,-159 361,-300l-47 -41c-100,82 -189,139 -265,171 -76,33 -152,49 -228,49 -79,0 -142,-24 -189,-73 -47,-48 -71,-113 -71,-194 0,-45 5,-102 15,-173 132,-10 238,-26 317,-48z"></path> <path class="fil2" d="M8823 2961l47 43c-105,124 -208,215 -309,272 -134,77 -273,116 -418,116 -96,0 -182,-21 -257,-62 -75,-42 -130,-100 -165,-174 -36,-75 -54,-152 -54,-230 0,-176 48,-349 144,-520 96,-170 222,-305 379,-404 157,-100 311,-149 463,-149 122,0 213,26 274,80 62,53 92,120 92,199 0,72 -23,133 -69,183 -47,50 -98,76 -155,76 -50,0 -91,-16 -124,-48 -33,-32 -49,-70 -49,-114 0,-58 29,-108 87,-151 40,-30 60,-56 60,-78 0,-20 -8,-35 -24,-47 -22,-17 -50,-26 -84,-26 -91,0 -176,37 -256,110 -105,97 -186,219 -242,367 -56,148 -84,289 -84,422 0,105 29,189 86,252 57,62 125,94 204,94 69,0 144,-18 225,-52 80,-35 156,-88 229,-159z"></path> </g> <path class="fil3" d="M4838 1160l1763 0 -168 590 -56 0c2,-31 3,-59 3,-83 0,-112 -35,-199 -104,-261 -69,-61 -185,-97 -349,-105l-472 1651c-27,92 -40,160 -40,204 0,41 16,74 50,98 33,24 101,37 203,39l-14 57 -1081 0 20 -57c110,0 191,-21 242,-62 50,-42 97,-136 139,-282l472 -1648c-166,5 -304,42 -415,110 -112,67 -213,180 -306,339l-60 0 173 -590z"></path> <path class="fil3" d="M6854 2068c65,-72 123,-108 175,-108 26,0 47,9 64,26 16,17 25,41 25,71 0,70 -19,146 -55,227 -37,81 -80,148 -131,201 -50,53 -101,91 -154,115 -52,24 -126,43 -220,57 78,-262 177,-458 296,-589zm6 625c117,-32 224,-79 319,-141 94,-61 173,-143 236,-244 45,-74 68,-150 68,-228 0,-66 -24,-120 -70,-163 -46,-43 -114,-64 -204,-64 -179,0 -356,53 -533,159 -177,107 -317,248 -419,424 -103,176 -154,352 -154,529 0,112 34,212 103,298 69,86 193,129 372,129 142,0 272,-30 389,-90 117,-59 238,-159 361,-300l-46 -41c-101,82 -190,139 -266,171 -76,33 -152,49 -228,49 -79,0 -142,-24 -189,-73 -47,-48 -71,-113 -71,-194 0,-45 5,-102 15,-173 133,-10 238,-26 317,-48z"></path> <path class="fil3" d="M8740 2961l47 43c-104,124 -207,215 -308,272 -135,77 -274,116 -418,116 -97,0 -183,-21 -258,-62 -74,-42 -130,-100 -165,-174 -36,-75 -53,-152 -53,-230 0,-176 47,-349 143,-520 96,-170 222,-305 379,-404 157,-100 312,-149 463,-149 122,0 213,26 275,80 61,53 92,120 92,199 0,72 -24,133 -70,183 -46,50 -98,76 -155,76 -50,0 -91,-16 -124,-48 -33,-32 -49,-70 -49,-114 0,-58 29,-108 87,-151 40,-30 60,-56 60,-78 0,-20 -8,-35 -24,-47 -22,-17 -50,-26 -84,-26 -91,0 -176,37 -255,110 -106,97 -187,219 -243,367 -56,148 -84,289 -84,422 0,105 29,189 86,252 57,62 125,94 204,94 70,0 144,-18 225,-52 80,-35 157,-88 229,-159z"></path> <path class="fil2" d="M1293 879c-211,0 -419,161 -474,366l-567 2102c-29,107 -12,208 48,286 58,76 150,119 259,119l8280 0c211,0 419,-161 474,-366l0 0 567 -2102c29,-107 12,-208 -48,-286 -58,-77 -150,-119 -259,-119l-8280 0zm-875 2663c-30,-40 -38,-96 -22,-156l567 -2102c38,-139 189,-255 330,-255l8280 0c61,0 111,21 141,60 30,40 38,95 22,156l-567 2102c-38,138 -189,255 -330,255l-8280 0c-61,0 -111,-21 -141,-60z"></path> <path class="fil3" d="M2064 145c0,0 -60,218 -70,254 -9,1 -10,1 -19,2 -16,-33 -130,-257 -130,-257l-208 42c0,0 -17,250 -19,287 -8,3 -10,3 -18,6 -23,-29 -179,-226 -179,-226l-195 83c0,0 34,250 39,286 -8,4 -9,5 -16,9 -29,-24 -222,-185 -222,-185l-174 121c0,0 83,237 96,272 -7,6 -8,7 -14,12 -33,-18 -254,-137 -254,-137l-147 153c0,0 129,216 149,248 -5,6 -6,8 -11,14 -36,-11 -277,-83 -277,-83l-113 179c0,0 170,186 195,213 -4,9 -5,11 -10,20 -37,-3 -287,-25 -287,-25l-74 199c0,0 206,149 235,169 -42,159 -65,322 -65,486 0,1045 851,1896 1897,1896 1045,0 1896,-851 1896,-1896 0,0 -2,-75 -4,-105 34,-15 264,-118 264,-118l-32 -210c0,0 -249,-29 -286,-33 -2,-8 -3,-10 -5,-18 30,-22 234,-168 234,-168l-73 -199c0,0 -251,22 -288,25 -3,-8 -4,-9 -8,-17 25,-27 196,-212 196,-212l-112 -179c0,0 -242,71 -277,82 -5,-7 -7,-9 -11,-15 19,-32 149,-247 149,-247l-146 -154c0,0 -222,119 -255,136 -6,-5 -7,-6 -13,-11 12,-35 96,-272 96,-272l-173 -122c0,0 -194,161 -222,185 -8,-5 -9,-5 -16,-9 5,-37 39,-286 39,-286l-194 -84c0,0 -157,196 -180,225 -8,-3 -10,-3 -18,-6 -2,-37 -18,-287 -18,-287l-208 -43c0,0 -114,223 -131,257 -9,-1 -10,-2 -18,-2 -10,-36 -76,-278 -76,-278l-212 -1 -7 24z"></path> <path class="fil4" d="M4294 2045l-25 -162 -284 -33c-4,-20 -10,-40 -15,-60l232 -167 -57 -153 -285 24c-8,-18 -18,-37 -27,-55l194 -210 -86 -139 -275 81c-12,-16 -25,-32 -38,-48l148 -246 -112 -118 -253 135c-15,-14 -31,-27 -46,-40l95 -270 -134 -94 -220 183c-18,-10 -36,-21 -54,-30l40 -283 -150 -65 -179 223c-20,-7 -39,-13 -59,-19l-19 -285 -160 -33 -130 254c-20,-2 -41,-4 -61,-6l-76 -276 -163 0 -77 276c-20,1 -41,3 -61,6l-129 -255 -161 32 -19 285c-20,6 -40,12 -59,19l-178 -224 -150 64 38 284c-18,9 -36,19 -54,30l-219 -184 -135 93 95 270c-16,13 -31,27 -47,40l-252 -136 -113 119 147 245c-13,16 -25,32 -38,49l-274 -83 -87 139 193 211c-10,19 -20,39 -29,59l-285 -25 -57 153 232 167c-44,159 -68,327 -68,500 0,1028 836,1864 1865,1864 1028,0 1865,-836 1865,-1864 0,-43 -2,-84 -5,-126l261 -116zm-2121 2042c-995,0 -1801,-806 -1801,-1800 0,-995 806,-1801 1801,-1801 994,0 1800,806 1800,1801 0,994 -806,1800 -1800,1800z"></path> <path class="fil1" d="M3457 2287c0,709 -575,1284 -1284,1284 -710,0 -1284,-575 -1284,-1284 0,-710 574,-1285 1284,-1285 709,0 1284,575 1284,1285z"></path> <g id="_3017098107248"> <line class="fil5 str0" x1="3435" y1="2289" x2="2909" y2="2300"></line> <line class="fil5 str0" x1="3428" y1="2153" x2="2909" y2="2300"></line> <line class="fil5 str0" x1="3406" y1="2018" x2="2909" y2="2300"></line> <line class="fil5 str0" x1="3370" y1="1887" x2="2909" y2="2300"></line> <line class="fil5 str0" x1="3320" y1="1760" x2="2909" y2="2300"></line> <line class="fil5 str0" x1="3257" y1="1639" x2="2909" y2="2300"></line> <line class="fil5 str0" x1="3181" y1="1526" x2="2909" y2="2300"></line> <line class="fil5 str0" x1="3093" y1="1421" x2="2909" y2="2300"></line> <line class="fil5 str0" x1="2995" y1="1327" x2="2909" y2="2300"></line> <line class="fil5 str0" x1="2887" y1="1243" x2="2909" y2="2300"></line> <line class="fil5 str0" x1="2771" y1="1172" x2="2909" y2="2300"></line> <line class="fil5 str0" x1="2648" y1="1113" x2="2909" y2="2300"></line> <line class="fil5 str0" x1="2519" y1="1068" x2="2909" y2="2300"></line> <line class="fil5 str0" x1="2386" y1="1037" x2="2909" y2="2300"></line> <line class="fil5 str0" x1="2251" y1="1020" x2="2909" y2="2300"></line> <line class="fil5 str0" x1="2115" y1="1018" x2="2909" y2="2300"></line> <line class="fil5 str0" x1="1979" y1="1031" x2="2909" y2="2300"></line> <line class="fil5 str0" x1="1845" y1="1058" x2="2909" y2="2300"></line> <line class="fil5 str0" x1="1715" y1="1099" x2="2909" y2="2300"></line> <line class="fil5 str0" x1="1591" y1="1154" x2="2909" y2="2300"></line> <line class="fil5 str0" x1="1472" y1="1221" x2="2909" y2="2300"></line> <line class="fil5 str0" x1="1362" y1="1302" x2="2909" y2="2300"></line> <line class="fil5 str0" x1="1261" y1="1393" x2="2909" y2="2300"></line> <line class="fil5 str0" x1="1170" y1="1495" x2="2909" y2="2300"></line> <line class="fil5 str0" x1="1091" y1="1606" x2="2909" y2="2300"></line> <line class="fil5 str0" x1="1024" y1="1724" x2="2909" y2="2300"></line> <line class="fil5 str0" x1="970" y1="1850" x2="2909" y2="2300"></line> <line class="fil5 str0" x1="930" y1="1980" x2="2909" y2="2300"></line> <line class="fil5 str0" x1="904" y1="2114" x2="2909" y2="2300"></line> <line class="fil5 str0" x1="892" y1="2250" x2="2909" y2="2300"></line> <line class="fil5 str0" x1="895" y1="2386" x2="2909" y2="2300"></line> <line class="fil5 str0" x1="913" y1="2521" x2="2909" y2="2300"></line> <line class="fil5 str0" x1="945" y1="2654" x2="2909" y2="2300"></line> <line class="fil5 str0" x1="991" y1="2782" x2="2909" y2="2300"></line> <line class="fil5 str0" x1="1051" y1="2905" x2="2909" y2="2300"></line> <line class="fil5 str0" x1="1123" y1="3020" x2="2909" y2="2300"></line> <line class="fil5 str0" x1="1207" y1="3127" x2="2909" y2="2300"></line> <line class="fil5 str0" x1="1303" y1="3225" x2="2909" y2="2300"></line> <line class="fil5 str0" x1="1408" y1="3312" x2="2909" y2="2300"></line> <line class="fil5 str0" x1="1522" y1="3387" x2="2909" y2="2300"></line> <line class="fil5 str0" x1="1643" y1="3449" x2="2909" y2="2300"></line> <line class="fil5 str0" x1="1770" y1="3498" x2="2909" y2="2300"></line> <line class="fil5 str0" x1="1902" y1="3533" x2="2909" y2="2300"></line> <line class="fil5 str0" x1="2036" y1="3554" x2="2909" y2="2300"></line> <line class="fil5 str0" x1="2173" y1="3561" x2="2909" y2="2300"></line> <line class="fil5 str0" x1="2309" y1="3552" x2="2909" y2="2300"></line> <line class="fil5 str0" x1="2443" y1="3530" x2="2909" y2="2300"></line> <line class="fil5 str0" x1="2574" y1="3492" x2="2909" y2="2300"></line> <line class="fil5 str0" x1="2701" y1="3442" x2="2909" y2="2300"></line> <line class="fil5 str0" x1="2821" y1="3377" x2="2909" y2="2300"></line> <line class="fil5 str0" x1="2934" y1="3301" x2="2909" y2="2300"></line> <line class="fil5 str0" x1="3038" y1="3212" x2="2909" y2="2300"></line> <line class="fil5 str0" x1="3132" y1="3113" x2="2909" y2="2300"></line> <line class="fil5 str0" x1="3214" y1="3005" x2="2909" y2="2300"></line> <line class="fil5 str0" x1="3285" y1="2888" x2="2909" y2="2300"></line> <line class="fil5 str0" x1="3343" y1="2765" x2="2909" y2="2300"></line> <line class="fil5 str0" x1="3387" y1="2636" x2="2909" y2="2300"></line> <line class="fil5 str0" x1="3417" y1="2503" x2="2909" y2="2300"></line> </g> <path class="fil5 str1" d="M3457 2287c0,709 -575,1284 -1284,1284 -710,0 -1284,-575 -1284,-1284 0,-710 574,-1285 1284,-1285 709,0 1284,575 1284,1285"></path> <path class="fil6" d="M849 2856l8 -4 61 124 -8 4 -5 -11c-6,-12 -14,-19 -23,-21 -6,-1 -18,3 -36,11l-186 92c-15,7 -24,13 -28,17 -3,3 -5,7 -5,13 0,8 1,15 4,22l5 10 -7 4 -61 -124 8 -4 5 11c6,12 13,19 23,20 6,2 18,-2 36,-10l186 -92c15,-7 24,-13 28,-17 3,-3 5,-7 5,-13 0,-8 -1,-15 -4,-22l-6 -10z"></path> <path class="fil6" d="M659 2835c-36,-15 -58,-33 -66,-55 -4,-11 -4,-22 -1,-32 3,-10 10,-19 22,-29 7,-6 21,-12 39,-18l89 -30c13,-4 21,-8 25,-12 3,-3 6,-6 6,-11 1,-4 0,-11 -3,-21l8 -3 34 102 -8 3 -2 -4c-3,-10 -7,-16 -11,-19 -4,-3 -9,-4 -15,-4 -3,0 -10,3 -22,6l-85 29c-19,6 -32,13 -39,21 -7,7 -8,17 -4,29 6,18 21,32 47,43l110 -36c14,-5 22,-8 25,-11 3,-4 5,-8 6,-12 1,-4 -1,-12 -4,-24l8 -2 34 101 -9 3 -1 -4c-3,-11 -8,-17 -15,-19 -6,-1 -17,0 -32,5l-78 26c-24,8 -39,14 -44,17 -5,2 -8,5 -9,8 -1,3 -1,7 0,11 1,4 4,9 8,14l-7 6 -46 -54 -3 -10 43 -14z"></path> <path class="fil6" d="M534 2520l73 -13 1 8c-22,10 -36,20 -42,31 -7,11 -9,23 -7,37 2,11 7,19 14,25 7,5 14,7 21,6 8,-2 15,-5 21,-11 5,-6 10,-17 15,-33l10 -37c10,-35 28,-54 53,-59 20,-3 37,1 51,14 15,12 24,28 27,46 2,13 3,28 1,45 0,6 0,10 0,13 1,4 3,6 7,8l2 8 -77 14 -1 -8c21,-9 36,-20 45,-34 9,-14 12,-29 9,-44 -2,-11 -7,-19 -14,-24 -8,-6 -16,-8 -25,-6 -11,2 -19,7 -25,16 -6,9 -12,25 -20,50 -7,25 -14,41 -22,50 -8,9 -18,14 -32,17 -18,3 -33,-1 -47,-10 -14,-10 -23,-25 -27,-44 -1,-8 -1,-19 0,-31 1,-8 1,-14 1,-17 -1,-2 -1,-4 -3,-5 -1,-1 -4,-3 -8,-4l-1 -8z"></path> <path class="fil6" d="M457 2399l71 -5 -3 -51 16 -1 4 51 141 -11c14,-1 24,-3 28,-8 5,-4 7,-9 6,-16 0,-5 -2,-10 -5,-15 -4,-4 -9,-8 -16,-10l0 -9c16,4 28,11 36,21 9,9 13,19 14,30 1,8 -1,15 -4,22 -4,7 -9,13 -17,17 -7,4 -18,6 -34,7l-147 11 3 34 -8 1c-4,-9 -10,-17 -19,-26 -9,-8 -19,-16 -31,-22 -7,-3 -18,-7 -34,-13l-1 -7z"></path> <path class="fil6" d="M405 2251c1,-7 3,-12 8,-17 4,-4 10,-7 17,-6 6,0 12,2 17,7 4,5 7,10 6,17 0,6 -2,12 -7,17 -5,4 -11,7 -17,6 -7,0 -12,-2 -17,-7 -4,-5 -7,-10 -7,-17zm114 -18l176 3c13,1 22,0 27,-2 4,-2 8,-5 10,-8 2,-4 3,-11 4,-21l8 0 -2 105 -8 0c0,-11 -1,-18 -3,-22 -2,-3 -5,-6 -10,-9 -5,-2 -14,-3 -27,-3l-84 -2c-24,0 -39,0 -46,1 -6,1 -9,3 -11,5 -2,3 -3,6 -3,10 0,5 1,10 3,17l-9 3 -25 -66 0 -11z"></path> <path class="fil6" d="M465 2091l71 8 5 -51 16 2 -5 50 141 15c14,2 24,1 29,-3 5,-3 8,-8 9,-14 0,-6 -1,-11 -3,-16 -3,-5 -7,-10 -13,-13l1 -9c14,7 25,16 32,27 7,11 9,22 8,32 -1,8 -3,15 -8,21 -5,7 -11,11 -19,14 -8,2 -20,3 -35,1l-146 -16 -4 35 -8 -1c-2,-9 -7,-19 -14,-29 -8,-10 -16,-19 -27,-27 -6,-4 -16,-10 -31,-18l1 -8z"></path> <path class="fil6" d="M588 1825l130 30c24,6 39,9 45,9 5,0 10,-1 12,-3 3,-2 5,-5 6,-8 1,-5 1,-11 -1,-17l10 -2 10 70 -2 10 -44 -10c15,23 24,39 27,50 2,11 2,22 0,32 -3,12 -9,21 -18,28 -9,8 -19,12 -30,12 -12,1 -28,-1 -48,-5l-94 -23c-10,-2 -17,-3 -22,-1 -4,1 -8,3 -11,7 -3,4 -6,11 -8,22l-9 -2 18 -74 142 34c20,5 34,4 42,-1 7,-5 12,-13 15,-23 1,-6 1,-14 -1,-24 -2,-9 -8,-21 -17,-35l-120 -29c-12,-3 -21,-2 -27,1 -5,3 -10,12 -13,26l-9 -2 17 -72z"></path> <path class="fil6" d="M566 1675l66 25 18 -48 16 6 -18 48 133 49c13,5 22,7 29,5 6,-2 10,-6 12,-12 2,-5 2,-11 1,-16 -2,-6 -5,-11 -10,-16l3 -9c13,11 21,22 25,34 4,13 4,24 0,34 -3,7 -7,13 -13,18 -6,5 -14,8 -22,8 -8,1 -20,-2 -34,-7l-138 -52 -12 33 -7 -3c0,-9 -3,-20 -7,-31 -5,-11 -11,-23 -19,-33 -5,-6 -13,-14 -26,-26l3 -7z"></path> <path class="fil6" d="M757 1505c28,-4 59,3 93,21 27,14 44,29 51,43 7,15 6,29 -1,43 -9,18 -27,27 -53,27 -27,1 -54,-6 -82,-21 -17,-9 -30,-19 -39,-29 -9,-11 -13,-21 -14,-31 0,-10 1,-18 5,-26 8,-15 22,-24 40,-27zm-61 66c1,19 8,37 20,55 13,18 29,31 46,41 25,12 50,17 77,12 33,-5 56,-21 71,-51 10,-17 14,-36 12,-55 -1,-19 -8,-38 -22,-55 -13,-18 -28,-31 -46,-40 -24,-13 -50,-17 -77,-12 -31,6 -55,24 -70,53 -8,16 -12,33 -11,52z"></path> <path class="fil6" d="M962 1013l59 49 -6 6c-11,-7 -20,-12 -26,-14 -10,-2 -20,-2 -28,1 -9,4 -18,10 -27,20l-30 34 182 165c15,13 25,20 32,20 9,-1 18,-5 26,-15l8 -8 6 6 -92 102 -7 -6 8 -8c9,-11 13,-21 11,-30 -2,-6 -9,-15 -22,-27l-183 -166 -26 29c-10,11 -16,20 -19,26 -3,9 -4,18 -1,28 2,10 8,20 18,31l-6 6 -54 -53 177 -196z"></path> <path class="fil6" d="M1112 1059c1,-14 7,-26 17,-34 7,-5 15,-9 24,-10 9,-1 18,1 27,5 5,3 13,9 22,20l-77 64c-11,-15 -15,-30 -13,-45zm138 -40c-18,-21 -37,-33 -60,-35 -22,-2 -43,4 -62,20 -22,18 -34,41 -35,69 -2,29 10,57 33,86 22,26 47,42 74,45 27,4 51,-2 71,-19 19,-15 29,-35 30,-59 1,-24 -5,-45 -16,-64l-9 1c7,19 9,35 5,48 -3,13 -10,23 -21,33 -16,13 -36,18 -60,14 -24,-4 -46,-19 -66,-43l116 -96z"></path> <path class="fil6" d="M1465 947c10,27 12,52 5,74 -7,22 -19,38 -37,49 -21,13 -45,16 -71,8 -27,-9 -49,-28 -68,-58 -18,-29 -24,-58 -17,-87 6,-29 21,-51 46,-66 18,-11 36,-15 54,-13 17,3 29,9 36,19 3,6 4,11 2,16 -1,5 -5,10 -11,13 -8,5 -15,6 -22,3 -4,-1 -9,-6 -15,-13 -6,-8 -12,-12 -20,-14 -7,-1 -15,1 -23,6 -14,9 -21,20 -24,35 -2,20 3,41 16,63 14,23 31,39 53,49 21,11 41,10 60,-1 13,-8 22,-20 27,-35 4,-11 4,-27 1,-48l8 0z"></path> <path class="fil6" d="M1512 819c12,-38 28,-61 49,-70 11,-5 22,-6 32,-4 10,2 20,9 30,19 7,8 15,21 22,39l36 86c5,12 10,21 14,24 3,3 7,5 11,5 5,1 12,-1 21,-5l4 8 -99 42 -4 -8 4 -2c10,-4 16,-8 18,-12 3,-5 4,-10 3,-16 -1,-3 -3,-10 -8,-21l-35 -83c-7,-18 -15,-31 -24,-37 -8,-6 -18,-7 -29,-2 -17,7 -31,24 -40,50l45 107c6,13 10,21 13,24 4,3 8,5 12,5 5,1 12,-1 23,-6l4 8 -99 42 -3 -8 4 -2c10,-4 16,-10 17,-16 1,-7 -1,-18 -7,-32l-32 -76c-10,-24 -16,-38 -20,-43 -3,-4 -6,-7 -9,-8 -3,-1 -7,-1 -11,1 -4,2 -8,5 -13,9l-7 -6 51 -50 9 -4 18 42z"></path> <path class="fil6" d="M1829 707c22,17 37,45 46,83 7,30 7,52 1,67 -7,15 -18,24 -33,27 -20,5 -38,-2 -56,-22 -17,-19 -30,-44 -37,-75 -5,-19 -6,-36 -4,-49 2,-13 7,-24 14,-30 7,-7 14,-12 23,-14 16,-4 32,0 46,13zm-89 -3c-14,13 -23,30 -28,51 -5,22 -5,42 -1,62 7,26 20,49 41,66 25,21 54,28 85,20 20,-5 37,-14 50,-27 14,-14 23,-32 27,-53 5,-22 4,-42 0,-61 -7,-27 -21,-49 -42,-66 -25,-20 -54,-26 -86,-18 -17,4 -33,13 -46,26z"></path> <path class="fil6" d="M1998 527l32 287c1,14 3,23 6,27 2,4 6,7 10,9 4,2 12,2 23,1l1 8 -106 12 0 -9c9,-1 16,-2 20,-5 3,-2 5,-6 7,-11 1,-5 1,-14 0,-27l-22 -197c-3,-24 -5,-39 -6,-44 -2,-6 -4,-10 -7,-11 -3,-2 -6,-3 -10,-2 -4,0 -9,2 -15,5l-5 -8 61 -33 11 -2z"></path> <g> <path class="fil6" d="M2231 671c17,23 25,53 24,92 0,31 -6,53 -16,65 -10,13 -23,19 -38,19 -20,-1 -37,-12 -49,-35 -12,-24 -18,-51 -18,-83 1,-20 3,-36 9,-48 5,-13 12,-21 21,-26 8,-5 17,-7 25,-7 17,0 31,8 42,23zm-86 -25c-16,9 -29,24 -40,43 -10,20 -15,40 -15,60 -1,27 7,52 23,74 19,27 45,40 78,41 20,0 38,-5 55,-15 16,-10 29,-25 39,-45 9,-19 14,-39 15,-59 0,-27 -8,-52 -25,-74 -19,-25 -46,-38 -79,-38 -18,-1 -35,4 -51,13zm57 -119l-27 81 8 0 72 -80 -53 -1 -57 119 57 -119z"></path> </g> <g> <path class="fil6" d="M2479 688c8,16 10,37 5,61 -3,19 -9,32 -18,40 -9,7 -20,10 -32,8 -12,-2 -21,-9 -28,-21 -8,-15 -10,-35 -5,-60 3,-18 9,-32 19,-40 9,-7 19,-10 31,-8 12,2 21,9 28,20zm-128 129c-6,7 -9,13 -10,19 -1,4 0,9 3,14 3,4 7,9 15,16 -18,12 -27,19 -29,21 -10,8 -17,16 -20,21 -3,3 -4,7 -5,11 -1,8 3,17 13,27 19,17 43,28 73,34 39,6 73,1 101,-18 19,-12 31,-27 34,-45 2,-13 0,-24 -8,-35 -7,-10 -17,-17 -32,-22 -9,-3 -29,-8 -61,-14 -18,-4 -29,-6 -33,-8 -7,-2 -12,-5 -14,-8 -2,-3 -3,-5 -2,-8 0,-3 2,-7 5,-11 3,-4 9,-8 17,-13 10,5 21,8 31,10 26,5 48,1 66,-10 17,-12 28,-27 31,-47 3,-18 2,-33 -5,-46l28 5c7,1 11,2 12,2 1,-1 2,-1 3,-2 1,-1 2,-4 2,-8 1,-4 1,-6 0,-8 0,-1 -1,-2 -2,-2 -1,-1 -5,-2 -11,-3l-46 -8c-13,-13 -30,-21 -50,-24 -25,-5 -47,0 -66,12 -18,12 -29,29 -33,50 -3,14 -1,28 4,40 5,13 13,24 25,32 -18,11 -30,20 -36,26zm100 72c24,5 40,10 47,15 7,4 10,11 9,19 -2,11 -11,20 -26,28 -15,8 -36,9 -64,4 -30,-5 -51,-14 -65,-26 -8,-7 -12,-15 -10,-22 1,-6 4,-12 9,-18 5,-6 12,-13 20,-19 19,6 45,12 80,19l-100 -72 100 72z"></path> </g> <path class="fil6" d="M2696 598c6,2 11,6 14,11 3,6 4,12 2,19 -2,6 -6,11 -12,14 -6,3 -12,4 -18,2 -7,-2 -11,-6 -14,-12 -4,-6 -4,-12 -2,-18 2,-7 6,-11 11,-15 6,-3 12,-3 19,-1zm-15 114l-51 168c-4,13 -6,22 -5,26 0,5 2,9 5,12 3,4 9,7 19,10l-3 8 -100 -31 3 -8c10,3 17,4 21,3 4,-1 8,-3 11,-7 4,-4 7,-12 11,-25l25 -80c7,-23 11,-38 12,-45 0,-5 -1,-9 -2,-12 -2,-2 -5,-4 -9,-5 -4,-2 -10,-2 -16,-2l-1 -9 70 -6 10 3z"></path> <path class="fil6" d="M2867 940c-17,24 -36,39 -58,46 -22,7 -42,7 -61,-2 -23,-10 -39,-28 -47,-54 -9,-27 -6,-56 9,-89 13,-31 34,-52 61,-64 28,-11 54,-11 80,1 20,8 34,21 42,37 8,16 10,29 5,40 -3,6 -6,9 -12,11 -5,2 -10,2 -17,-1 -8,-4 -13,-10 -15,-17 -1,-4 -1,-11 2,-20 3,-9 3,-17 0,-24 -3,-6 -9,-12 -18,-16 -14,-6 -29,-6 -42,1 -18,9 -32,26 -43,49 -10,24 -14,48 -10,71 3,24 15,40 35,49 14,6 29,7 45,2 11,-3 24,-12 39,-26l5 6z"></path> <path class="fil6" d="M3070 942c2,27 -8,58 -28,90 -17,26 -33,42 -48,47 -15,6 -29,4 -42,-4 -17,-11 -25,-29 -23,-55 1,-27 11,-53 28,-80 10,-16 21,-29 32,-36 11,-8 22,-12 32,-12 10,1 18,3 25,8 15,9 23,23 24,42zm-61 -67c-18,-1 -37,5 -56,16 -19,11 -34,25 -44,42 -15,23 -22,49 -20,76 3,32 17,57 45,75 17,11 35,16 54,17 20,0 39,-6 57,-18 19,-12 33,-26 44,-42 15,-24 21,-49 18,-76 -3,-32 -19,-57 -47,-74 -15,-10 -32,-15 -51,-16z"></path> <path class="fil6" d="M3267 1180l133 -47 -58 128 -75 -81zm46 144c-7,15 -13,24 -18,29 -4,4 -8,5 -14,4 -6,-1 -13,-6 -22,-15l-7 6 86 94 7 -6c-8,-10 -13,-20 -13,-30 0,-10 4,-25 14,-47l120 -264 -5 -6 -272 96c-24,8 -41,12 -52,12 -6,-1 -14,-5 -25,-13l-6 6 69 75 6 -6c-10,-13 -15,-22 -15,-28 -1,-6 1,-10 5,-14 4,-4 13,-8 26,-13l52 -18 85 92 -21 46z"></path> <path class="fil6" d="M3621 1495l-114 70c-21,13 -33,22 -37,26 -5,4 -7,7 -7,11 -1,3 0,6 2,9 2,4 6,8 12,12l-6 8 -56 -42 -6 -9 39 -24c-27,-5 -45,-11 -55,-17 -9,-5 -17,-13 -23,-22 -6,-10 -9,-21 -7,-33 1,-11 6,-21 13,-30 8,-8 20,-18 38,-29l83 -51c8,-5 14,-10 16,-14 2,-4 3,-8 3,-13 -1,-5 -4,-12 -10,-22l7 -4 40 64 -125 77c-17,11 -26,21 -28,30 -2,9 0,18 5,27 4,6 10,11 18,16 8,5 20,10 37,14l105 -65c11,-7 17,-13 18,-19 1,-7 -1,-16 -9,-28l8 -5 39 63z"></path> <path class="fil6" d="M3742 1585l-65 29 21 47 -14 7 -22 -47 -129 59c-12,6 -20,12 -23,17 -3,6 -3,12 0,18 2,4 5,8 10,12 6,3 11,4 18,4l4 9c-16,1 -30,-1 -41,-7 -12,-6 -20,-14 -24,-24 -3,-7 -4,-14 -4,-22 1,-8 4,-15 10,-22 5,-6 15,-12 30,-19l133 -60 -14 -32 7 -3c7,6 16,12 27,17 11,5 24,8 37,10 7,1 19,1 36,0l3 7z"></path> <g> <path class="fil6" d="M3727 1841c-17,22 -43,39 -80,50 -30,10 -52,11 -67,6 -15,-6 -25,-16 -30,-31 -6,-19 0,-39 19,-57 18,-19 42,-33 72,-43 19,-6 35,-8 49,-7 13,2 24,6 31,12 7,7 12,14 15,22 5,16 2,32 -9,48zm-3 -90c-14,-13 -32,-21 -54,-25 -21,-3 -42,-2 -61,4 -26,8 -47,23 -64,45 -19,26 -24,55 -14,86 6,20 16,36 31,48 15,13 33,21 55,24 21,3 42,1 60,-5 27,-8 48,-23 63,-46 18,-26 22,-55 12,-87 -5,-17 -14,-32 -28,-44zm131 16l-86 0 2 8 99 43 -15 -51 -131 -16 131 16z"></path> </g> <path class="fil6" d="M3759 2017c34,21 52,42 55,65 2,12 1,23 -4,32 -5,9 -14,17 -26,24 -9,5 -24,9 -43,12l-92 13c-14,2 -23,4 -27,7 -4,2 -7,5 -8,10 -2,4 -2,11 -1,21l-8 2 -15 -107 8 -1 1 4c1,10 4,17 7,21 4,3 9,5 15,6 3,0 10,0 22,-2l89 -13c20,-2 34,-7 42,-13 8,-7 12,-16 10,-28 -3,-19 -16,-36 -39,-51l-114 16c-15,2 -24,4 -27,6 -4,3 -7,6 -9,11 -1,4 -1,12 1,24l-9 1 -15 -106 9 -1 0 4c2,11 6,18 12,21 6,3 17,3 32,1l81 -12c26,-3 41,-6 47,-8 5,-2 9,-4 11,-7 1,-3 2,-6 1,-10 0,-5 -2,-10 -6,-16l9 -4 35 61 1 10 -45 7z"></path> <path class="fil6" d="M3788 2355c-23,16 -54,23 -92,23 -31,-1 -53,-6 -65,-16 -13,-11 -19,-23 -19,-39 1,-20 12,-36 36,-48 23,-13 51,-18 82,-18 20,1 36,4 48,9 13,6 21,13 26,21 5,9 7,17 7,25 0,18 -8,32 -23,43zm25 -87c-9,-16 -23,-29 -43,-39 -19,-11 -39,-16 -59,-16 -27,-1 -52,7 -75,23 -26,18 -40,44 -40,77 -1,20 4,38 14,55 9,16 24,30 44,39 20,10 40,15 59,15 28,1 53,-7 74,-23 26,-20 39,-46 39,-79 1,-18 -4,-35 -13,-52z"></path> <path class="fil6" d="M3764 2538c12,19 19,30 21,34 4,8 7,16 9,25 1,9 1,17 -1,25 -3,13 -9,24 -19,31 -10,8 -23,12 -38,12 14,20 24,36 27,49 3,12 4,24 1,36 -3,11 -8,20 -16,28 -8,7 -19,12 -33,14 -10,2 -24,0 -43,-4l-92 -21c-13,-3 -22,-4 -28,-3 -3,0 -7,2 -10,6 -4,4 -6,10 -8,19l-9 -2 24 -104 8 2 -1 5c-2,9 -2,16 1,22 1,4 5,8 10,11 2,1 10,3 22,6l91 20c18,4 30,5 38,2 12,-3 19,-12 22,-25 2,-9 2,-17 -1,-27 -2,-9 -7,-21 -15,-35l-3 -1 -10 -1 -102 -24c-14,-3 -23,-4 -27,-3 -4,1 -8,3 -11,7 -3,4 -6,11 -9,22l-8 -2 24 -107 8 2c-2,12 -3,20 -1,25 2,5 5,9 11,12 2,1 9,3 22,6l92 21c17,4 30,4 39,1 11,-5 18,-13 21,-25 2,-8 1,-17 -1,-26 -4,-15 -9,-26 -16,-35l-114 -26c-14,-3 -23,-5 -28,-4 -4,1 -8,3 -11,7 -3,3 -6,10 -8,22l-9 -2 24 -104 8 2c-2,10 -2,16 -1,21 1,4 4,8 8,11 4,2 12,5 25,8l82 19c24,5 39,8 46,8 5,0 9,-1 11,-2 3,-2 5,-5 6,-9 1,-5 1,-10 0,-17l9 -1 11 70 -2 10 -46 -11z"></path> <path class="fil6" d="M3628 2992c-28,5 -59,0 -94,-16 -28,-13 -46,-26 -53,-41 -8,-14 -8,-28 -2,-42 9,-19 26,-29 52,-31 26,-2 54,4 83,17 18,9 31,18 40,28 10,10 15,19 16,29 1,10 0,19 -4,26 -7,16 -20,26 -38,30zm57 -69c-1,-19 -9,-37 -23,-54 -14,-17 -30,-30 -48,-38 -25,-12 -51,-15 -78,-9 -32,7 -54,25 -68,55 -8,18 -11,37 -9,56 2,19 11,37 25,54 14,16 30,29 48,37 25,12 51,14 78,8 31,-8 53,-27 67,-57 7,-16 10,-34 8,-52z"></path> <path class="fil6" d="M1244 3702c-14,-10 -23,-25 -25,-47 -2,-22 6,-46 24,-73 17,-26 36,-42 57,-48 16,-4 30,-3 41,5 6,4 12,10 16,18 3,8 5,17 4,27 -1,10 -4,20 -9,29l-62 93c-19,5 -34,3 -46,-4zm20 44l9 6 68 14 3 -9c-8,-1 -13,-3 -17,-6 -3,-2 -5,-4 -5,-8 -1,-3 -1,-7 1,-12 2,-6 10,-19 24,-40l140 -210 -9 -6 -69 -14 -2 9c7,2 12,4 16,6 3,2 5,5 6,8 1,3 0,7 -2,13 -2,5 -10,18 -23,38l-23 35c-4,-18 -13,-32 -29,-42 -26,-17 -54,-21 -85,-10 -31,11 -54,29 -72,55 -17,26 -24,52 -20,79 4,26 16,46 35,59 10,7 21,11 32,12 11,2 24,1 39,-3l-17 26z"></path> <path class="fil6" d="M1506 3654c14,-5 26,-5 38,0 8,4 15,10 20,17 5,8 7,17 7,27 0,6 -3,16 -8,29l-91 -42c9,-16 20,-26 34,-31zm97 106c11,-25 13,-47 5,-69 -7,-21 -22,-36 -45,-47 -26,-12 -52,-12 -78,-1 -26,11 -47,33 -62,67 -14,31 -17,60 -9,86 9,27 25,45 48,56 22,10 44,10 66,1 22,-10 39,-24 51,-42l-5 -8c-14,15 -28,23 -40,26 -13,3 -26,1 -39,-5 -19,-9 -32,-25 -39,-48 -7,-23 -4,-49 10,-79l137 63z"></path> <path class="fil6" d="M1772 3602l-88 275c-5,13 -6,21 -6,26 1,5 3,9 6,13 3,3 10,6 21,10l-3 8 -101 -32 2 -9c10,3 17,4 21,4 4,-1 8,-4 11,-7 3,-4 7,-13 11,-25l61 -188c7,-24 11,-38 12,-44 1,-6 0,-10 -1,-13 -2,-2 -5,-4 -9,-6 -3,-1 -9,-1 -16,-1l-1 -9 70 -6 10 4z"></path> <path class="fil6" d="M2166 3915l8 2 -35 85 -248 -21 1 -9 12 1c13,2 23,-2 30,-10 3,-5 6,-17 8,-35l17 -207c2,-20 0,-33 -4,-38 -5,-8 -14,-12 -26,-13l-12 -1 1 -9 144 12 -1 9c-16,-2 -28,-1 -35,2 -7,2 -12,6 -15,11 -3,5 -6,17 -7,36l-17 202c-1,13 -1,22 2,27 1,4 4,6 8,8 4,2 16,4 36,6l24 2c24,2 42,1 52,-2 10,-2 20,-8 29,-17 9,-8 18,-22 28,-41z"></path> <path class="fil6" d="M2262 3658c7,0 13,2 18,6 5,4 7,10 8,16 0,7 -2,13 -6,18 -5,5 -10,7 -17,8 -6,0 -12,-2 -17,-6 -5,-5 -8,-10 -8,-17 -1,-6 1,-12 6,-17 4,-5 10,-8 16,-8zm27 112l11 175c1,14 2,23 4,27 3,4 6,7 10,9 4,2 11,3 21,2l0 9 -104 7 -1 -9c11,-1 18,-2 21,-5 4,-2 6,-5 8,-10 2,-5 3,-14 2,-27l-5 -85c-2,-23 -3,-39 -5,-45 -2,-5 -4,-9 -6,-11 -3,-2 -6,-2 -10,-2 -5,0 -10,2 -16,5l-4 -9 64 -30 10 -1z"></path> <path class="fil6" d="M2401 3691l10 71 51 -8 2 16 -50 8 21 140c3,14 6,23 11,28 4,4 10,5 16,4 6,0 10,-3 15,-7 4,-4 7,-9 9,-16l9 -1c-3,16 -9,29 -18,38 -9,9 -19,15 -29,16 -7,2 -15,1 -22,-2 -8,-3 -14,-8 -18,-15 -5,-7 -8,-18 -11,-34l-22 -145 -34 5 -1 -7c8,-5 16,-12 24,-22 7,-9 14,-20 19,-33 3,-6 6,-18 10,-35l8 -1z"></path> <path class="fil6" d="M2631 3743c22,16 39,43 50,81 8,29 9,52 3,67 -6,15 -16,24 -31,28 -19,6 -38,0 -57,-19 -18,-19 -32,-43 -41,-74 -5,-19 -7,-35 -6,-48 2,-14 6,-24 13,-31 6,-7 14,-12 22,-14 17,-5 32,-2 47,10zm-90 1c-13,13 -21,31 -25,53 -4,21 -3,42 2,61 8,26 23,48 44,65 26,19 55,25 86,16 20,-6 36,-16 49,-30 13,-15 21,-33 24,-54 4,-22 3,-42 -3,-61 -7,-27 -22,-48 -45,-64 -26,-19 -55,-23 -86,-14 -18,5 -33,14 -46,28z"></path> <path class="fil6" d="M2776 3647l20 45c3,-38 13,-60 31,-68 8,-3 15,-4 23,-1 7,2 12,7 15,13 3,6 3,11 1,17 -2,5 -6,9 -11,12 -5,2 -12,2 -20,0 -9,-2 -14,-3 -17,-2 -3,2 -5,4 -7,9 -4,8 -6,21 -7,38l43 95c4,11 10,19 15,24 4,3 8,4 14,5 6,0 14,-2 23,-6l4 8 -103 46 -4 -8c11,-5 18,-10 21,-15 3,-4 4,-9 3,-14 -1,-3 -3,-10 -8,-22l-35 -77c-10,-24 -17,-37 -20,-41 -3,-4 -6,-6 -9,-7 -4,-1 -7,-1 -11,1 -5,2 -9,5 -14,10l-6 -7 50 -51 9 -4z"></path> <path class="fil6" d="M3036 3739c-7,5 -16,5 -26,3 -10,-3 -18,-10 -24,-19 -4,-8 -6,-17 -6,-26 1,-9 5,-20 12,-33 4,-7 14,-21 29,-41l44 71c-9,24 -18,39 -29,45zm57 -13c6,2 13,1 20,-3 14,-8 22,-27 25,-57l-7 -11c-3,13 -6,21 -8,25 -1,2 -2,3 -5,5 -2,1 -4,1 -6,1 -3,-1 -5,-2 -8,-6 -4,-4 -10,-14 -21,-32l-39 -63c-11,-18 -19,-29 -25,-33 -9,-7 -19,-10 -30,-9 -14,1 -29,6 -45,16 -22,13 -36,28 -42,45 -5,17 -5,32 2,43 4,6 8,10 14,12 5,1 10,1 15,-2 5,-4 9,-8 10,-13 1,-6 0,-11 -4,-18l-8 -11c-3,-6 -4,-13 -2,-21 2,-7 8,-14 16,-19 11,-7 22,-8 32,-5 10,3 21,14 32,33l5 7c-25,31 -42,55 -51,72 -8,16 -13,31 -13,43 0,9 3,18 9,28 9,14 20,23 33,27 14,3 27,1 40,-6 9,-5 15,-12 20,-20 4,-5 11,-21 21,-47 6,11 13,17 20,19z"></path> <path class="fil6" d="M3037 3355l178 228c8,10 15,17 19,19 4,2 9,3 13,2 5,0 12,-4 21,-11l5 7 -84 65 -5 -7c8,-6 12,-11 14,-15 2,-4 2,-8 1,-13 -2,-5 -7,-13 -15,-23l-122 -156c-15,-19 -25,-31 -29,-34 -4,-4 -8,-6 -11,-6 -3,0 -7,1 -9,3 -4,3 -7,7 -11,13l-8 -5 35 -60 8 -7z"></path> <path class="fil7" d="M3721 4221l-52 185 16 0c42,0 73,-6 92,-17 19,-11 36,-31 49,-60l13 0 -53 186 -12 0c2,-13 3,-23 3,-31 0,-12 -3,-23 -11,-31 -7,-8 -17,-14 -29,-18 -8,-2 -25,-3 -49,-3l-27 0 -45 160c-4,14 -6,24 -6,31 0,5 2,10 7,13 8,5 22,7 42,7 40,0 77,-9 112,-26 35,-16 66,-42 94,-77l14 0 -48 131 -403 0 4 -13c23,0 41,-4 52,-13 10,-9 20,-29 29,-60l89 -307c4,-17 7,-30 7,-40 0,-9 -3,-16 -9,-21 -7,-4 -21,-8 -43,-9l4 -13 375 0 -30 119 -13 0c-1,-24 -4,-40 -10,-50 -10,-15 -23,-26 -39,-33 -16,-6 -42,-10 -78,-10l-45 0zm594 -37l-113 393c-7,25 -11,39 -11,45 0,2 1,4 3,6 2,2 4,3 6,3 4,0 8,-2 13,-6 9,-6 19,-19 32,-37l12 6c-32,58 -68,87 -107,87 -14,0 -25,-4 -33,-11 -7,-8 -11,-17 -11,-28 0,-11 3,-27 9,-48l11 -35c-29,51 -54,86 -76,103 -16,13 -32,19 -47,19 -17,0 -32,-7 -44,-22 -12,-14 -18,-35 -18,-62 0,-35 8,-69 23,-103 15,-34 33,-63 53,-85 20,-23 39,-39 57,-49 19,-10 36,-15 54,-15 9,0 17,2 24,6 7,4 15,11 24,21l26 -87c6,-22 9,-37 9,-47 0,-5 -2,-10 -6,-14 -4,-4 -10,-6 -17,-6 -3,0 -7,0 -12,1l4 -14 114 -21 21 0zm-153 223c0,-15 -3,-25 -8,-32 -6,-6 -12,-10 -20,-10 -7,0 -15,4 -24,12 -16,15 -33,45 -51,90 -18,46 -27,84 -27,115 0,11 2,19 6,25 4,5 8,8 13,8 8,0 16,-4 24,-11 20,-18 39,-49 58,-92 20,-44 29,-79 29,-105zm309 -62l-67 239c-3,11 -5,19 -5,23 0,2 1,4 3,5 2,2 4,3 6,3 11,0 25,-10 43,-29 25,-28 52,-68 80,-120l32 -108 88 -3 -67 232c-6,20 -8,31 -8,34 0,2 1,4 2,6 2,2 4,3 6,3 3,0 6,-2 9,-5 8,-6 19,-20 33,-41l12 9c-32,58 -68,88 -106,88 -15,0 -26,-4 -34,-11 -8,-8 -13,-17 -13,-29 0,-13 3,-29 9,-48l17 -60c-30,45 -52,75 -66,90 -20,23 -38,39 -52,46 -14,8 -28,12 -41,12 -12,0 -23,-5 -32,-14 -9,-9 -13,-21 -13,-35 0,-12 3,-28 9,-48l39 -140c6,-23 9,-39 9,-47 0,-3 0,-6 -2,-9 -2,-3 -5,-5 -10,-6 -4,-2 -12,-3 -23,-3l3 -13 119 -21 20 0zm474 241l11 10c-23,27 -45,47 -67,60 -29,16 -59,25 -90,25 -21,0 -39,-5 -55,-14 -16,-9 -28,-21 -36,-38 -7,-16 -11,-33 -11,-50 0,-38 10,-76 31,-113 20,-37 48,-66 81,-88 34,-22 67,-33 100,-33 26,0 46,6 59,18 13,12 20,26 20,44 0,15 -5,29 -15,40 -10,11 -21,16 -33,16 -11,0 -20,-3 -27,-10 -7,-7 -11,-16 -11,-25 0,-13 7,-24 19,-33 9,-7 13,-13 13,-18 0,-4 -2,-7 -5,-10 -5,-3 -11,-5 -18,-5 -20,0 -38,8 -55,23 -23,22 -40,48 -52,81 -12,32 -18,63 -18,92 0,23 6,41 18,55 12,13 27,20 44,20 15,0 31,-4 48,-11 17,-8 34,-20 49,-36zm389 -236l-67 234 -7 28c-1,4 -1,7 -1,8 0,3 1,5 3,8 2,2 4,3 6,3 5,0 12,-4 20,-12 4,-3 12,-13 25,-32l12 6c-16,31 -34,53 -52,67 -19,14 -39,21 -60,21 -14,0 -24,-4 -31,-10 -7,-7 -10,-16 -10,-27 0,-9 4,-26 11,-51l8 -28c-27,47 -52,80 -77,99 -14,11 -30,17 -46,17 -21,0 -37,-9 -46,-27 -10,-17 -14,-37 -14,-60 0,-33 10,-70 29,-113 20,-43 47,-77 79,-103 27,-22 52,-33 75,-33 13,0 23,4 31,12 8,7 14,21 18,42l12 -44 82 -5zm-111 67c0,-19 -3,-33 -8,-41 -5,-6 -10,-9 -17,-9 -8,0 -15,4 -23,11 -15,14 -32,44 -50,88 -18,45 -27,83 -27,115 0,13 2,21 6,27 4,5 9,8 14,8 10,0 21,-6 31,-18 16,-17 29,-39 42,-64 21,-44 32,-83 32,-117zm393 169l11 10c-23,27 -45,47 -67,60 -29,16 -59,25 -90,25 -20,0 -39,-5 -55,-14 -16,-9 -28,-21 -35,-38 -8,-16 -12,-33 -12,-50 0,-38 10,-76 31,-113 21,-37 48,-66 81,-88 34,-22 68,-33 100,-33 26,0 46,6 59,18 13,12 20,26 20,44 0,15 -5,29 -15,40 -10,11 -21,16 -33,16 -11,0 -20,-3 -27,-10 -7,-7 -10,-16 -10,-25 0,-13 6,-24 18,-33 9,-7 13,-13 13,-18 0,-4 -1,-7 -5,-10 -5,-3 -11,-5 -18,-5 -19,0 -38,8 -55,23 -23,22 -40,48 -52,81 -12,32 -18,63 -18,92 0,23 6,41 18,55 13,13 27,20 44,20 15,0 31,-4 48,-11 17,-8 34,-20 49,-36zm209 -402c14,0 26,5 36,15 10,10 15,22 15,36 0,15 -5,27 -15,37 -10,10 -22,15 -36,15 -14,0 -26,-5 -36,-15 -10,-10 -15,-22 -15,-37 0,-14 5,-26 15,-36 9,-10 22,-15 36,-15zm21 161l-71 250c-4,14 -6,24 -6,28 0,3 1,5 3,8 2,2 4,3 7,3 4,0 8,-2 12,-6 10,-8 23,-24 37,-47l12 8c-35,61 -72,92 -112,92 -15,0 -27,-4 -35,-13 -9,-8 -14,-19 -14,-32 0,-9 2,-20 6,-33l48 -168c5,-16 7,-29 7,-37 0,-5 -2,-10 -6,-14 -5,-4 -11,-5 -18,-5 -4,0 -8,0 -13,0l5 -14 117 -20 21 0zm250 0c18,0 36,5 52,13 16,9 28,21 36,36 8,15 13,32 13,50 0,38 -11,76 -32,114 -21,38 -48,68 -83,90 -34,22 -69,33 -103,33 -32,0 -56,-10 -73,-29 -18,-18 -26,-42 -26,-69 0,-33 6,-63 19,-92 13,-28 29,-53 49,-74 20,-21 43,-38 68,-52 26,-13 53,-20 80,-20zm-14 19c-12,0 -23,4 -31,11 -16,15 -34,49 -54,103 -21,55 -31,103 -31,147 0,11 3,20 10,27 6,7 14,10 23,10 9,0 17,-3 24,-8 10,-9 22,-28 37,-57 15,-29 27,-62 37,-97 9,-36 14,-68 14,-98 0,-12 -3,-21 -9,-28 -6,-7 -12,-10 -20,-10zm30 -180l107 0 -117 123 -31 0 41 -123zm296 161l-43 151c29,-44 51,-74 65,-90 21,-24 39,-39 54,-48 16,-8 30,-13 43,-13 13,0 23,5 31,14 9,9 13,21 13,35 0,13 -3,29 -8,48l-45 150c-3,13 -5,22 -5,26 0,2 1,4 2,6 2,2 4,3 6,3 2,0 5,-1 7,-3 8,-7 16,-16 25,-29 2,-3 5,-8 10,-15l13 9c-34,57 -70,86 -107,86 -15,0 -26,-3 -34,-11 -8,-7 -12,-17 -12,-28 0,-10 3,-25 8,-44l44 -150c3,-10 4,-17 4,-22 0,-2 -1,-5 -3,-7 -2,-2 -4,-3 -7,-3 -9,0 -20,7 -32,19 -32,31 -63,77 -93,138l-28 104 -89 0 65 -225c6,-23 9,-38 9,-48 0,-4 -1,-7 -2,-10 -2,-3 -5,-5 -9,-6 -5,-2 -12,-3 -24,-3l4 -13 117 -21 21 0zm798 -161l-39 161 -11 0c-3,-25 -7,-45 -14,-60 -10,-22 -23,-39 -39,-51 -16,-12 -33,-18 -52,-18 -18,0 -34,7 -47,21 -14,14 -21,29 -21,47 0,17 5,34 14,51 10,17 32,42 67,76 28,27 47,50 56,69 10,20 15,41 15,64 0,25 -7,49 -20,70 -14,22 -33,38 -59,50 -25,12 -54,18 -87,18 -20,0 -45,-3 -75,-9 -30,-6 -50,-9 -60,-9 -8,0 -15,1 -21,4 -7,2 -14,7 -24,14l-13 0 42 -182 13 0c3,32 9,59 19,82 10,22 24,39 42,52 18,12 38,19 62,19 23,0 42,-8 57,-23 15,-16 23,-34 23,-54 0,-18 -4,-35 -13,-51 -9,-16 -28,-39 -59,-70 -31,-31 -53,-59 -64,-83 -9,-18 -13,-37 -13,-58 0,-35 14,-66 41,-91 28,-26 64,-39 108,-39 20,0 47,4 80,14 19,5 32,8 40,8 7,0 13,-2 18,-5 6,-3 12,-8 19,-17l15 0zm170 161l-68 239c-3,11 -4,19 -4,23 0,2 0,4 2,5 2,2 4,3 7,3 10,0 25,-10 42,-29 26,-28 52,-68 81,-120l31 -108 88 -3 -67 232c-5,20 -8,31 -8,34 0,2 1,4 3,6 1,2 3,3 5,3 3,0 6,-2 9,-5 9,-6 20,-20 33,-41l12 9c-32,58 -67,88 -106,88 -14,0 -26,-4 -34,-11 -8,-8 -12,-17 -12,-29 0,-13 3,-29 8,-48l17 -60c-30,45 -52,75 -65,90 -21,23 -39,39 -53,46 -14,8 -28,12 -41,12 -12,0 -23,-5 -31,-14 -9,-9 -14,-21 -14,-35 0,-12 3,-28 9,-48l39 -140c7,-23 10,-39 10,-47 0,-3 -1,-6 -3,-9 -2,-3 -5,-5 -9,-6 -4,-2 -12,-3 -24,-3l4 -13 118 -21 21 0zm249 20l115 -20 21 0 -15 58c24,-23 44,-38 59,-46 16,-8 31,-12 47,-12 21,0 38,9 50,26 12,17 18,38 18,62 0,67 -23,127 -69,179 -41,46 -86,69 -134,69 -8,0 -16,-1 -22,-3 -6,-1 -14,-5 -25,-10l-18 63c-7,23 -10,40 -10,52 0,8 3,13 8,18 5,4 17,8 36,11l-4 13 -186 0 3 -13c15,-1 27,-5 37,-14 10,-10 19,-29 28,-60l84 -295c7,-22 10,-38 10,-47 0,-4 -1,-7 -3,-10 -2,-2 -5,-4 -8,-5 -4,-2 -12,-2 -25,-2l3 -14zm55 270c7,11 13,19 18,23 6,4 12,6 20,6 7,0 14,-2 22,-7 7,-4 15,-12 26,-24 10,-13 20,-29 30,-48 9,-19 17,-42 23,-66 6,-25 9,-49 9,-71 0,-18 -4,-31 -10,-39 -6,-9 -14,-13 -23,-13 -8,0 -16,3 -23,7 -10,6 -23,17 -37,34l-55 198zm369 -96c-2,16 -3,28 -3,38 0,17 5,32 15,42 10,11 24,16 41,16 16,0 32,-4 48,-12 17,-8 36,-22 57,-42l10 10c-26,32 -52,55 -77,69 -26,14 -53,21 -84,21 -39,0 -65,-9 -80,-28 -15,-19 -22,-41 -22,-65 0,-39 11,-77 33,-115 22,-39 52,-70 90,-93 38,-23 76,-35 115,-35 19,0 34,5 44,14 10,10 15,22 15,36 0,17 -5,34 -15,50 -13,22 -30,40 -50,53 -21,13 -44,24 -69,31 -17,5 -39,8 -68,10zm3 -18c21,-3 36,-7 48,-12 11,-6 22,-14 33,-26 10,-11 20,-26 28,-44 7,-17 11,-34 11,-49 0,-7 -1,-12 -5,-16 -4,-4 -8,-5 -14,-5 -11,0 -23,7 -37,23 -26,29 -47,72 -64,129zm370 -176l-52 198c43,-96 75,-156 97,-178 13,-13 26,-20 40,-20 10,0 18,4 24,11 6,7 9,17 9,31 0,22 -6,41 -17,57 -6,10 -14,15 -23,15 -9,0 -16,-5 -21,-13 -4,-9 -8,-14 -9,-16 -2,-1 -4,-2 -6,-2 -3,0 -5,1 -8,2 -5,3 -11,10 -20,21 -8,10 -18,29 -30,54 -12,26 -21,47 -28,65 -7,18 -16,51 -28,101l-84 0 57 -233c4,-17 6,-29 6,-34 0,-7 -1,-11 -3,-15 -2,-4 -5,-6 -9,-8 -4,-1 -12,-2 -24,-2l3 -10 105 -24 21 0zm268 -161c14,0 27,5 36,15 10,10 15,22 15,36 0,15 -5,27 -15,37 -10,10 -22,15 -36,15 -14,0 -26,-5 -36,-15 -10,-10 -15,-22 -15,-37 0,-14 5,-26 15,-36 10,-10 22,-15 36,-15zm22 161l-72 250c-3,14 -5,24 -5,28 0,3 1,5 3,8 2,2 4,3 6,3 4,0 8,-2 12,-6 10,-8 23,-24 38,-47l11 8c-35,61 -72,92 -111,92 -15,0 -27,-4 -36,-13 -9,-8 -13,-19 -13,-32 0,-9 2,-20 6,-33l48 -168c4,-16 7,-29 7,-37 0,-5 -2,-10 -7,-14 -4,-4 -10,-5 -18,-5 -3,0 -8,0 -12,0l4 -14 118 -20 21 0zm250 0c18,0 35,5 51,13 16,9 28,21 37,36 8,15 12,32 12,50 0,38 -10,76 -31,114 -21,38 -49,68 -83,90 -35,22 -69,33 -104,33 -31,0 -56,-10 -73,-29 -17,-18 -26,-42 -26,-69 0,-33 7,-63 20,-92 12,-28 29,-53 49,-74 19,-21 42,-38 68,-52 26,-13 52,-20 80,-20zm-15 19c-12,0 -22,4 -30,11 -16,15 -35,49 -55,103 -20,55 -31,103 -31,147 0,11 4,20 10,27 7,7 14,10 23,10 9,0 17,-3 24,-8 10,-9 23,-28 38,-57 14,-29 27,-62 36,-97 10,-36 14,-68 14,-98 0,-12 -3,-21 -8,-28 -6,-7 -13,-10 -21,-10zm305 -19l-52 198c43,-96 75,-156 97,-178 12,-13 26,-20 40,-20 10,0 18,4 24,11 6,7 9,17 9,31 0,22 -6,41 -17,57 -7,10 -14,15 -23,15 -9,0 -16,-5 -21,-13 -4,-9 -8,-14 -10,-16 -1,-1 -3,-2 -5,-2 -3,0 -5,1 -8,2 -5,3 -11,10 -20,21 -8,10 -18,29 -30,54 -12,26 -21,47 -28,65 -7,18 -16,51 -28,101l-84 0 57 -233c4,-17 6,-29 6,-34 0,-7 -1,-11 -3,-15 -2,-4 -5,-6 -9,-8 -4,-1 -12,-2 -24,-2l3 -10 105 -24 21 0z"></path> </g> </svg> 